HIERARCHY
ROOT locator2
{
  OFFSET 53.6172 30.1899 0.816905
  CHANNELS 6 Xposition Yposition Zposition Zrotation Xrotation Yrotation
  JOINT koshi
  {
    OFFSET 0 0 0
    CHANNELS 6 Xposition Yposition Zposition Zrotation Xrotation Yrotation
    JOINT sippo01
    {
      OFFSET 0 42.8363 -0.548134
      CHANNELS 6 Xposition Yposition Zposition Zrotation Xrotation Yrotation
      JOINT sippo02
      {
        OFFSET 0 44.0461 -3.28882
        CHANNELS 6 Xposition Yposition Zposition Zrotation Xrotation Yrotation
        JOINT sippo03
        {
          OFFSET 0 34.1929 -2.46662
          CHANNELS 6 Xposition Yposition Zposition Zrotation Xrotation Yrotation
          JOINT sippo04
          {
            OFFSET 0 30.0959 -1.75404
            CHANNELS 6 Xposition Yposition Zposition Zrotation Xrotation Yrotation
            JOINT sippo05
            {
              OFFSET 0 28.3637 -1.75404
              CHANNELS 6 Xposition Yposition Zposition Zrotation Xrotation Yrotation
              JOINT sippo06
              {
                OFFSET 0 31.6071 -3.2043
                CHANNELS 6 Xposition Yposition Zposition Zrotation Xrotation Yrotation
                End Site
                {
                  OFFSET 0 0 0
                }
              }
            }
          }
        }
      }
    }
    JOINT R_momo
    {
      OFFSET -27.891 13.5892 3.92723
      CHANNELS 6 Xposition Yposition Zposition Zrotation Xrotation Yrotation
      JOINT R_hiza
      {
        OFFSET 0 28.01 1.8232
        CHANNELS 6 Xposition Yposition Zposition Zrotation Xrotation Yrotation
        JOINT R_ashi
        {
          OFFSET 0 24.3992 -2.49174
          CHANNELS 6 Xposition Yposition Zposition Zrotation Xrotation Yrotation
          End Site
          {
            OFFSET 0 0 0
          }
        }
      }
    }
    JOINT L_momo
    {
      OFFSET 27.891 13.5892 3.92714
      CHANNELS 6 Xposition Yposition Zposition Zrotation Xrotation Yrotation
      JOINT L_hiza
      {
        OFFSET 0 28.0098 1.82319
        CHANNELS 6 Xposition Yposition Zposition Zrotation Xrotation Yrotation
        JOINT L_ashi
        {
          OFFSET 0 24.3992 -2.49171
          CHANNELS 6 Xposition Yposition Zposition Zrotation Xrotation Yrotation
          End Site
          {
            OFFSET 0 0 0
          }
        }
      }
    }
  }
  JOINT hara
  {
    OFFSET 0 2.15392 0
    CHANNELS 6 Xposition Yposition Zposition Zrotation Xrotation Yrotation
    JOINT mune
    {
      OFFSET 0 62.0609 0.472494
      CHANNELS 6 Xposition Yposition Zposition Zrotation Xrotation Yrotation
      JOINT R_kata
      {
        OFFSET 22.6695 9.65301 -5.3622
        CHANNELS 6 Xposition Yposition Zposition Zrotation Xrotation Yrotation
        JOINT R_hiji
        {
          OFFSET 0 25.813 1.69098
          CHANNELS 6 Xposition Yposition Zposition Zrotation Xrotation Yrotation
          JOINT R_te
          {
            OFFSET 0 28.5636 -0.966307
            CHANNELS 6 Xposition Yposition Zposition Zrotation Xrotation Yrotation
            End Site
            {
              OFFSET 0 0 0
            }
          }
        }
      }
      JOINT L_kata
      {
        OFFSET -22.6695 9.65298 -5.3622
        CHANNELS 6 Xposition Yposition Zposition Zrotation Xrotation Yrotation
        JOINT L_hiji
        {
          OFFSET 0 25.813 1.69102
          CHANNELS 6 Xposition Yposition Zposition Zrotation Xrotation Yrotation
          JOINT L_te
          {
            OFFSET 0 28.5636 -0.966295
            CHANNELS 6 Xposition Yposition Zposition Zrotation Xrotation Yrotation
            End Site
            {
              OFFSET 0 0 0
            }
          }
        }
      }
      JOINT kubi
      {
        OFFSET 0 23.1438 -0.944988
        CHANNELS 6 Xposition Yposition Zposition Zrotation Xrotation Yrotation
        JOINT atama
        {
          OFFSET 0 20.8625 4.12737
          CHANNELS 6 Xposition Yposition Zposition Zrotation Xrotation Yrotation
          JOINT ago
          {
            OFFSET 0 7.552 -7.58201
            CHANNELS 6 Xposition Yposition Zposition Zrotation Xrotation Yrotation
            End Site
            {
              OFFSET 0 0 0
            }
          }
        }
      }
    }
  }
}
MOTION
Frames:	8
Frame Time:	0.0333333
-31.9415 30.086 1.81865 -90 -3.50835e-015 -90 0 0 0 178.41 -3.23591 -0.134208 -6.10947e-007 42.8363 -0.54814 1.96533 -6.09135 5.79416 -7.03895e-009 44.0461 -3.28883 1.31586 11.1964 -3.37342 -8.65508e-007 34.1929 -2.46661 5.91991 1.67608 -1.4048 -5.40733e-006 30.0959 -1.75403 4.37524 9.13485 -1.45796 -2.50288e-006 28.3637 -1.75403 9.0615 -3.74523 5.49592 -1.4025e-005 31.6072 -3.20429 4.86516 -5.36762 -6.89505 -27.891 13.5892 3.92723 141.366 -17.9915 -2.6543 -6.06554e-006 28.01 1.82319 0.819378 -27.4176 -5.99959 -2.42903e-006 24.3992 -2.49174 1.90484 43.8436 3.52183 27.891 13.5892 3.92713 -126.349 -11.5238 29.2962 2.40926e-006 28.0098 1.82319 1.56747 -69.2254 -3.91214 7.20111e-006 24.3992 -2.49172 -1.76999 76.6442 -23.7785 6.07673e-007 2.15392 3.55271e-015 10.438 -2.93941 -0.628381 -1.49012e-008 62.0609 0.472488 4.77083e-015 1.31695e-015 -3.97569e-016 22.6695 9.653 -5.3622 -97.9376 -17.2593 77.3066 7.6294e-006 25.813 1.69098 -0.0294662 -54.1282 0.944779 -7.67608e-006 28.5636 -0.966309 21.2641 30.784 -93.5671 -22.6695 9.65298 -5.3622 36.1224 -20.9371 -89.0336 -3.8147e-006 25.813 1.69102 -0.217166 -50.3617 2.15728 8.00891e-006 28.5636 -0.9663 -43.3746 61.5291 125.149 1.58518e-008 23.1438 -0.944988 8.34216 -1.90524 22.1716 5.96047e-008 20.8625 4.12737 13.6031 -6.0381 23.4401 1.39438e-006 7.55202 -7.58201 -1.96603e-008 2.88626 9.98243e-011 
-31.9521 29.8873 1.79773 -90 -3.50835e-015 -90 0 0 0 178.275 -3.31687 -0.152707 -6.10948e-007 42.8363 -0.54814 1.58793 -6.26654 6.0637 -5.34758e-008 44.0461 -3.28883 0.190447 11.4618 -2.9985 -8.53389e-007 34.1929 -2.46663 5.07842 2.26807 -1.90264 -5.02309e-006 30.0959 -1.75402 3.44216 9.1448 -2.10577 -1.45928e-006 28.3637 -1.75403 8.02129 -1.92742 5.222 -1.23814e-005 31.6072 -3.20428 4.46851 -4.02606 -7.70933 -27.891 13.5892 3.92723 141.85 -17.9108 -2.68816 -6.05411e-006 28.01 1.82319 0.786303 -27.6061 -5.61579 -2.38382e-006 24.3992 -2.49174 1.94911 43.6369 3.54793 27.891 13.5892 3.92713 -126.761 -11.2921 29.7362 2.39352e-006 28.0098 1.82319 1.72267 -69.883 -4.04074 7.24189e-006 24.3992 -2.49172 -1.77008 76.644 -24.0408 6.07673e-007 2.15392 0 9.91948 -2.61154 -0.821176 -1.49012e-008 62.0609 0.472488 5.51738e-033 1.59028e-015 -1.98785e-016 22.6695 9.653 -5.3622 -97.7365 -17.6702 76.1055 7.6294e-006 25.813 1.69098 -0.0111029 -55.8446 0.778365 -7.66484e-006 28.5636 -0.966309 22.1048 31.7945 -94.415 -22.6695 9.65298 -5.3622 38.2497 -21.8949 -88.5205 -3.8147e-006 25.813 1.69102 -0.215739 -50.5663 2.27213 8.02162e-006 28.5636 -0.9663 -43.0305 60.4024 124.71 1.58518e-008 23.1438 -0.944988 8.5199 -1.74462 22.1536 5.96047e-008 20.8625 4.12737 14.7678 -6.96611 24.1804 1.44687e-006 7.55202 -7.58201 -1.96598e-008 2.51511 1.19625e-010 
-31.9629 29.6866 1.7766 -90 -3.50835e-015 -90 0 0 0 178.146 -3.39337 -0.172106 -6.10948e-007 42.8363 -0.54814 1.09235 -6.44151 6.32165 -1.21367e-007 44.0461 -3.28883 -0.951614 11.7259 -2.60659 -8.57248e-007 34.1929 -2.46663 4.22935 2.86629 -2.38639 -4.64466e-006 30.0959 -1.75398 2.28294 9.21687 -2.77208 -2.60108e-007 28.3637 -1.75405 6.98152 -0.0821907 5.01267 -1.04883e-005 31.6072 -3.20428 4.07172 -2.66859 -8.51267 -27.891 13.5892 3.92723 141.762 -17.6954 -2.90045 -6.06747e-006 28.01 1.82319 0.753514 -27.7934 -5.69446 -2.43414e-006 24.3992 -2.49174 1.9928 43.4317 3.57432 27.891 13.5892 3.92713 -127.17 -11.0711 30.2119 2.37746e-006 28.0098 1.82319 1.88998 -70.5469 -4.1597 7.28591e-006 24.3992 -2.49172 -1.79468 76.8292 -24.5339 6.07673e-007 2.15392 0 9.29363 -2.28104 -0.977324 -1.49012e-008 62.0609 0.472488 4.77083e-015 1.36664e-015 -1.98785e-016 22.6695 9.653 -5.3622 -97.4221 -18.1222 75.9522 7.6294e-006 25.813 1.69098 0.00871307 -57.5769 0.612131 -7.65394e-006 28.5636 -0.966309 22.9791 32.8 -95.1708 -22.6695 9.65298 -5.3622 40.4344 -22.7693 -87.9147 -3.8147e-006 25.813 1.69102 -0.214494 -50.7669 2.38463 8.03402e-006 28.5636 -0.9663 -42.7248 59.2659 124.551 1.58518e-008 23.1438 -0.944988 8.70195 -1.49796 22.3083 5.96047e-008 20.8625 4.12737 15.6546 -7.76446 24.5156 1.47778e-006 7.55202 -7.58201 -4.01933e-006 2.14454 1.01537e-005 
-31.9735 29.4898 1.75588 -90 -3.50835e-015 -90 0 0 0 178.004 -3.47835 -0.192889 -6.10948e-007 42.8363 -0.54814 0.603083 -6.36178 6.57011 -1.95809e-007 44.0461 -3.28883 -2.0721 11.9801 -2.04072 -8.68347e-007 34.1929 -2.46663 3.396 3.45396 -2.78363 -4.27975e-006 30.0959 -1.75403 1.14622 9.34437 -3.38046 9.11122e-007 28.3637 -1.75407 5.96888 1.73573 4.87174 -8.57709e-006 31.6072 -3.20427 3.68622 -1.33707 -9.28195 -27.891 13.5892 3.92723 141.673 -17.4845 -3.10831 -6.08023e-006 28.01 1.82319 0.720119 -27.9832 -5.77746 -2.48403e-006 24.3992 -2.49174 2.03678 43.2237 3.60147 27.891 13.5892 3.92713 -127.57 -10.8495 30.6813 2.35949e-006 28.0098 1.82319 2.06491 -71.1968 -4.26466 7.32923e-006 24.3992 -2.49172 -1.81935 77.0115 -25.0167 6.07673e-007 2.15392 0 8.57702 -1.95472 -1.16285 -1.49012e-008 62.0609 0.472488 1.10348e-032 -7.95139e-016 7.95139e-016 22.6695 9.653 -5.3622 -97.0944 -18.5614 74.1974 7.6294e-006 25.813 1.69098 0.0282684 -59.2761 0.449775 -7.64382e-006 28.5636 -0.96631 23.8631 33.7726 -94.7582 -22.6695 9.65298 -5.3622 42.6077 -23.533 -87.2402 -3.8147e-006 25.813 1.69102 -0.21303 -50.9636 2.49516 8.04613e-006 28.5636 -0.9663 -42.4617 58.1535 124.419 1.58518e-008 23.1438 -0.944988 8.87966 -1.17753 22.2639 5.96047e-008 20.8625 4.12737 16.1176 -8.6912 24.666 1.50572e-006 7.55202 -7.58201 -1.03526e-005 1.77495 1.03263e-005 
-31.9842 29.2911 1.57205 -90 -3.50835e-015 -90 0 0 0 177.872 -3.55661 -0.212825 -6.10947e-007 42.8363 -0.54814 0.111647 -6.2805 6.82084 -2.70738e-007 44.0461 -3.28883 -3.20573 12.2319 -1.45888 -8.79646e-007 34.1929 -2.46663 2.55293 4.04832 -3.16769 -3.90872e-006 30.0959 -1.75404 -0.00306279 9.6548 -4.03441 2.11656e-006 28.3637 -1.75404 4.95084 3.57684 4.87005 -6.61626e-006 31.6073 -3.20413 3.29902 0.00990076 -10.0409 -27.891 13.5892 3.92723 141.583 -17.2716 -3.31794 -6.09272e-006 28.01 1.82319 0.704999 -28.1728 -5.85216 -2.53046e-006 24.3992 -2.49174 2.08023 43.017 3.62884 27.891 13.5892 3.92713 -127.972 -10.6205 31.1587 2.33906e-006 28.0098 1.82319 2.25461 -71.8543 -4.35769 7.37307e-006 24.3992 -2.49172 -1.48888 77.3812 -25.8491 6.07673e-007 2.15392 0 7.85589 -1.55804 -1.2786 -1.49012e-008 62.0609 0.472488 -1.59028e-015 8.44835e-016 -3.97569e-016 22.6695 9.653 -5.3622 -96.5063 -18.3738 72.5083 7.6294e-006 25.813 1.69098 0.0529404 -60.9922 0.670998 -7.65219e-006 28.5636 -0.96631 25.1202 35.7617 -94.9615 -22.6695 9.65298 -5.3622 44.8297 -24.2051 -86.4832 -3.8147e-006 25.813 1.69102 -0.211639 -51.1681 2.61002 8.05867e-006 28.5636 -0.9663 -42.2298 57.0319 124.307 1.58518e-008 23.1438 -0.944988 8.87974 -1.0193 22.4222 5.96047e-008 20.8625 4.12737 16.3053 -9.63645 24.4181 1.51448e-006 7.55202 -7.58201 -1.02867e-005 1.40804 1.02603e-005 
-32.0089 29.0904 1.38641 -90 -3.50835e-015 -90 0 0 0 177.739 -3.63573 -0.232436 -6.10948e-007 42.8363 -0.54814 -0.383248 -6.19787 7.0527 -3.47675e-007 44.0461 -3.28883 -4.35194 12.4808 -0.861091 -8.90363e-007 34.1929 -2.46662 1.18099 4.64883 -3.49521 -3.30874e-006 30.0959 -1.75404 -1.16615 10.0278 -4.63574 3.52927e-006 28.3637 -1.75403 3.91167 3.19945 5.08885 -4.30422e-006 31.6072 -3.20429 2.90702 1.37057 -10.7886 -27.891 13.5892 3.92723 141.491 -17.0568 -3.5293 -6.10494e-006 28.01 1.82319 0.688833 -28.0757 -5.92874 -2.58652e-006 24.3992 -2.49174 2.33762 42.8006 3.512 27.891 13.5892 3.92713 -128.38 -10.384 31.6448 2.31615e-006 28.0098 1.82319 2.46119 -72.5211 -4.43828 7.41736e-006 24.3992 -2.49172 -1.1178 77.5693 -26.8565 6.07673e-007 2.15392 0 7.02363 -1.15407 -1.35093 -1.49012e-008 62.0609 0.472488 -7.95139e-016 9.44227e-016 1.98785e-016 22.6695 9.653 -5.3622 -95.9272 -18.1701 70.7735 7.6294e-006 25.813 1.69098 0.0788607 -62.418 0.895215 -7.66007e-006 28.5636 -0.96631 26.4903 37.7329 -94.9562 -22.6695 9.65298 -5.3622 46.9507 -24.8384 -86.8272 -3.8147e-006 25.813 1.69102 -0.207483 -50.7586 2.72603 8.07298e-006 28.5636 -0.9663 -42.0176 55.8935 124.201 1.58518e-008 23.1438 -0.944988 8.87953 -0.935476 22.6029 5.96047e-008 20.8625 4.12737 16.2122 -10.604 23.9369 1.51162e-006 7.55202 -7.58201 -1.01937e-005 0.887125 1.01674e-005 
-32.033 28.8936 1.20437 -90 -3.50835e-015 -90 0 0 0 177.605 -3.71565 -0.254079 -6.10947e-007 42.8363 -0.54814 -0.870607 -6.11623 7.28208 -4.23511e-007 44.0461 -3.28883 -5.47803 12.7193 -0.264933 -9.00587e-007 34.1929 -2.46662 -0.166598 5.23567 -3.78856 -2.71908e-006 30.0959 -1.75404 -2.38077 10.5098 -5.23628 4.95552e-006 28.3637 -1.75403 2.89441 2.82691 5.28996 -1.95827e-006 31.6072 -3.20429 2.24564 2.70609 -11.4908 -27.891 13.5892 3.92723 141.402 -16.8482 -3.73445 -6.11642e-006 28.01 1.82319 0.67211 -27.968 -6.00782 -2.64156e-006 24.3992 -2.49174 2.57775 42.3102 3.41629 27.891 13.5892 3.92713 -129.086 -10.2139 32.0696 2.30135e-006 28.0098 1.82319 2.71107 -73.3812 -4.62594 7.45324e-006 24.3992 -2.49172 -0.742723 77.7529 -27.7305 6.07673e-007 2.15392 -7.10543e-015 6.2066 -0.624481 -1.38972 -1.49012e-008 62.0609 0.472488 -1.59028e-015 1.09332e-015 -1.98785e-016 22.6695 9.653 -5.3622 -95.3728 -17.9478 66.4658 7.6294e-006 25.813 1.69098 0.106734 -63.817 1.11864 -7.6671e-006 28.5636 -0.96631 28.213 39.5548 -95.2456 -22.6695 9.65298 -5.3622 49.0489 -25.3648 -87.104 -3.8147e-006 25.813 1.69102 -0.203466 -50.3555 2.84077 8.08716e-006 28.5636 -0.9663 -40.9474 54.0559 123.019 1.58518e-008 23.1438 -0.944988 8.87974 -1.01403 22.7988 5.96047e-008 20.8625 4.12737 16.2737 -11.6811 23.5291 1.51172e-006 7.55202 -7.58201 -8.81264e-007 0.376313 1.18902e-006 
-32.0575 28.7111 1.02054 -90 -3.50835e-015 -90 0 0 0 177.473 -3.7939 -0.274228 -6.10948e-007 42.8363 -0.54814 -1.36161 -5.68076 7.52362 -5.11895e-007 44.0461 -3.28883 -6.61867 12.9547 0.347847 -9.19274e-007 34.1929 -2.46662 -1.53021 5.82545 -4.05669 -2.12815e-006 30.0959 -1.75404 -3.5417 11.1766 -5.7794 6.32087e-006 28.3637 -1.75403 1.86775 2.44909 5.47948 3.3401e-007 31.6072 -3.20429 1.57733 4.05554 -12.1683 -27.891 13.5892 3.92723 141.242 -16.8187 -4.10815 -6.13661e-006 28.01 1.82319 0.654596 -27.8543 -5.84544 -2.68916e-006 24.3992 -2.49174 2.81541 41.8165 3.70014 27.891 13.5892 3.92713 -129.798 -10.0315 32.4373 2.28271e-006 28.0098 1.82319 2.99158 -74.2504 -4.7872 7.48552e-006 24.3992 -2.49172 -0.358547 78.1215 -28.49 6.07673e-007 2.15392 0 5.17753 -0.0215581 -1.45573 -1.49012e-008 62.0609 0.472488 7.95139e-016 7.20594e-016 -3.97569e-016 22.6695 9.653 -5.3622 -93.6112 -17.9899 66.0837 7.6294e-006 25.813 1.69098 0.137824 -65.2293 1.34714 -7.67338e-006 28.5636 -0.96631 30.0775 41.3366 -95.6885 -22.6695 9.65298 -5.3622 51.1809 -25.7975 -87.3283 -3.8147e-006 25.813 1.69102 -0.199489 -49.9467 2.95712 8.10155e-006 28.5636 -0.9663 -40.0073 52.1904 121.938 1.58518e-008 23.1438 -0.944988 9.06107 -1.41719 23.0565 5.96047e-008 20.8625 4.12737 16.3337 -12.6317 23.0794 1.50469e-006 7.55202 -7.58201 -4.84073e-006 -0.139543 3.51208e-006 
